<svg xmlns="http://www.w3.org/2000/svg" id="comment" width="24" height="24" viewBox="0 0 24 24">
  <path stroke-width="0" d="m12,1.25C6.07227,1.25,1.25,6.07227,1.25,12c0,1.90918.51172,3.7793,1.48242,5.43115l-1.44385,4.33154c-.08984.26953-.02002.56689.18115.76758.14307.14307.33447.21973.53027.21973.07959,0,.15967-.0127.2373-.03857l4.33154-1.44385c1.65186.9707,3.52197,1.48242,5.43115,1.48242,5.92773,0,10.75-4.82227,10.75-10.75S17.92773,1.25,12,1.25Zm0,20c-1.74414,0-3.45117-.49707-4.93652-1.43799-.12158-.07666-.26074-.11621-.40137-.11621-.07959,0-.15967.0127-.2373.03857l-3.23877,1.07959,1.07959-3.23877c.07129-.21387.04297-.44824-.07764-.63867-.94092-1.48535-1.43799-3.19238-1.43799-4.93652C2.75,6.89941,6.89941,2.75,12,2.75s9.25,4.14941,9.25,9.25-4.14941,9.25-9.25,9.25Z"></path>
</svg>
